<?xml version="1.0" encoding="utf-8"?>
<!-- Generator: Adobe Illustrator 24.0.0, SVG Export Plug-In . SVG Version: 6.00 Build 0)  -->
<svg version="1.1" id="Layer_1" xmlns="http://www.w3.org/2000/svg" xmlns:xlink="http://www.w3.org/1999/xlink" x="0px" y="0px"
	 viewBox="0 0 576 432" style="enable-background:new 0 0 576 432;" xml:space="preserve">
<style type="text/css">
	.st0{fill:url(#SVGID_1_);}
	.st1{fill:url(#SVGID_2_);}
	.st2{fill:url(#SVGID_3_);}
	.st3{fill:url(#SVGID_4_);}
	.st4{fill:url(#SVGID_5_);}
	.st5{fill:url(#SVGID_6_);}
	.st6{fill:url(#SVGID_7_);}
	.st7{fill:url(#SVGID_8_);}
	.st8{fill:url(#SVGID_9_);}
	.st9{fill:url(#SVGID_10_);}
	.st10{fill:url(#SVGID_11_);}
	.st11{fill:none;stroke:#000000;stroke-width:2.104;stroke-miterlimit:10;}
</style>
<path d="M355.12,227.08c-0.2-0.28-0.63-0.29-0.94-0.12c-0.23,0.13-0.46,0.22-0.69,0.34c-0.11,0.02-0.21,0.02-0.31,0.03
	c0.01-0.02,0.01-0.04,0.02-0.06c0.05-0.16,0.11-0.31,0.18-0.47c0-0.01,0.06-0.13,0.07-0.16c0.04-0.07,0.08-0.14,0.12-0.21
	l-0.01-0.01c0.22-0.36,0.25-0.84-0.01-1.12c-0.33-0.35-0.82-0.33-1.22,0.01c-0.09-0.34-0.33-0.63-0.63-0.69
	c-0.49-0.1-0.89,0.15-1.17,0.56l-0.03-0.02c-0.08,0.12-0.14,0.24-0.21,0.36c0.01-0.02,0-0.04,0.01-0.06c0.19-0.3,0.39-0.6,0.58-0.9
	c0.23-0.36,0.24-0.89-0.02-1.17c-0.25-0.27-0.73-0.4-1.09-0.13c-0.56,0.41-1.03,0.98-1.4,1.63c0.1-0.86,0.21-1.73,0.39-2.58
	c0.13-0.61-0.71-0.97-1.11-0.49c-0.41,0.48-0.8,0.97-1.21,1.45c-0.03-0.64-0.51-1.07-1.1-1.21c0.21-0.48,0.42-0.95,0.58-1.45
	c0.19-0.58-0.18-1.02-0.64-1.08c1.05-2.11,1.82-4.35,2.29-6.67c0.18-0.91-1.04-1.43-1.65-0.72c-0.99,1.15-2.02,2.27-3.02,3.42
	c0.66-2.74,1.03-5.49,0.97-8.19c-0.02-1.05-1.34-1.33-1.77-0.19c-0.53,1.41-1.24,2.76-1.76,4.17c-0.48,1.32-0.89,2.65-1.24,4
	c-0.23,0.05-0.46,0.2-0.6,0.49c-0.27,0.58-0.52,1.18-0.77,1.77c-0.02-0.14-0.07-0.27-0.18-0.37c-0.18-0.15-0.44-0.14-0.68-0.03
	c0.18-0.6-0.12-1.24-0.65-1.38c-0.99-0.27-2.04-0.64-3.11-0.58c-0.58,0.03-1.16,0.12-1.73,0.28c-0.56,0.16-1.24,0.36-1.68,0.83
	c-0.45,0.31-0.93,0.57-1.35,0.95c-0.24,0.23-0.4,0.5-0.55,0.72c-0.18,0.25-0.4,0.47-0.61,0.71c-0.34,0.39-0.03,0.94,0.43,0.7
	c0.39-0.21,0.68-0.3,1.09-0.38c0.25-0.02,0.5-0.08,0.77-0.16c0.17-0.05,0.34-0.11,0.51-0.15c0.04-0.01,0.2-0.04,0.29-0.06
	c0.45,0.04,0.92-0.12,1.41-0.22c0.2-0.04,0.44-0.09,0.67-0.12c-0.11,0.33-0.16,0.68-0.13,1c0.02,0.22,0.08,0.43,0.12,0.64
	c0.13,0.55,0.27,1.11,0.46,1.64c0.15,0.42,0.34,0.85,0.55,1.24c0.29,0.53,0.62,1.18,1.17,1.43c0.07,0.06,0.13,0.13,0.21,0.18
	c0.3,0.22,0.72,0.21,1.1,0.06c-0.03,0.3-0.06,0.6-0.08,0.89c-0.01,0.19-0.03,0.37-0.03,0.56c0,0,0,0.01-0.01,0.01
	c-1.07,1.95,1.45,3.57,2.54,1.6c0.32-0.57,0.65-1.14,0.97-1.71c0.22,0.54,0.87,0.83,1.46,0.24c0.6-0.6,1.19-1.22,1.78-1.83
	c0,0.18,0.06,0.34,0.15,0.48c-0.44,1.2-0.65,2.5-0.2,3.47c-0.13,0.18-0.27,0.34-0.41,0.52c-0.29,0.39,0.22,0.81,0.55,0.48
	c0.11-0.11,0.22-0.23,0.33-0.35c0.09,0.09,0.17,0.18,0.28,0.25c0.35,0.24,0.74,0.39,1.18,0.42c0.43,0.02,0.49-0.01,0.8,0
	c0.74,0.01,1.36-0.33,1.83-1c0.14-0.21,0.12-0.4,0.02-0.56c0.01,0,0.01-0.01,0.02-0.01c0.12-0.09,0.24-0.19,0.36-0.28
	c0.01-0.01,0.02-0.03,0.04-0.04c0.02-0.02,0.03-0.04,0.05-0.06c0.03-0.04,0.06-0.08,0.09-0.11c-0.03,0.35-0.06,0.69-0.02,1.01
	c0.09,0.74,0.84,0.96,1.45,0.64c0.37-0.19,0.72-0.44,1.05-0.71c0.13,0.02,0.26,0.03,0.41-0.02c0.27-0.1,0.52-0.23,0.76-0.36
	c0.03,0.19,0.07,0.36,0.15,0.51c0.27,0.51,0.81,0.54,1.29,0.16c0.22-0.18,0.51-0.24,0.78-0.29c-0.03,0.08-0.04,0.16-0.04,0.25
	c-0.21,0.35-0.1,0.8,0.32,0.79c0.16,0,0.33,0.01,0.49-0.03c0.35-0.07,0.62-0.31,0.81-0.63
	C355.38,228.23,355.48,227.58,355.12,227.08z"/>
<path d="M295.45,233c0.19,2.1,0.39,4.19,0.58,6.29c-0.5-2.1-1.42-4.06-2.87-5.59c-0.67-0.71-1.75-0.09-1.81,0.77
	c-0.12,1.8-0.11,3.58-0.02,5.35c-1.76-3.09-4.02-5.89-6.72-8.26c-0.55-0.48-1.71-0.19-1.61,0.68c0.33,2.76,0.84,5.36,1.85,7.89
	c-1.29-1.26-2.58-2.51-3.87-3.75c-0.72-0.69-1.79,0.41-1.08,1.11c2.76,2.74,5.45,5.56,8.13,8.39c-5.49-1.87-11.47-2.22-17.27-2.08
	c-1.05,0.03-1.63,1.63-0.55,2.11c4.3,1.88,8.61,3.82,13.22,4.79c0.1,0.14,0.23,0.25,0.41,0.29c0.89,0.18,1.78,0.36,2.68,0.53
	c0.03,0.01,0.07,0.01,0.1,0.02c1.27,0.45,2.54,0.89,3.85,1.19c1.27,0.3,3,0.71,4.34,0.27c0.92,0.96,1.85,1.91,2.78,2.86
	c0.27,2.5,0.58,4.99,1.02,7.45c0.09,0.49,0.85,0.36,0.85-0.11c-0.02-1.91-0.12-3.81-0.25-5.72c0.99,0.99,1.96,1.99,2.96,2.97
	c0.24,0.23,0.68-0.09,0.48-0.37c-1.14-1.59-2.35-3.13-3.58-4.66c-0.2-2.45-0.45-4.89-0.67-7.33c-0.47-5.04-0.94-10.07-1.42-15.11
	C296.89,232.02,295.36,232.02,295.45,233z M297.33,253.32c-0.34-0.4-0.68-0.79-1.02-1.18c0.01-0.01,0.02-0.01,0.03-0.02
	c0.37-0.25,0.49-0.78,0.13-1.12c-0.17-0.16-0.32-0.33-0.49-0.48c-0.01-0.02-0.03-0.04-0.04-0.06c0.38-0.14,0.74-0.31,1.09-0.49
	C297.12,251.08,297.23,252.2,297.33,253.32z"/>
<linearGradient id="SVGID_1_" gradientUnits="userSpaceOnUse" x1="328.3043" y1="68.2648" x2="248.1509" y2="261.8269">
	<stop  offset="0" style="stop-color:#FF953C"/>
	<stop  offset="1" style="stop-color:#FF5631"/>
</linearGradient>
<path class="st0" d="M225.28,241.97c-32.32-35.83-29.47-91.08,6.36-123.4s91.08-29.47,123.4,6.36
	c22.84,25.32,28.09,60.32,16.59,90.08c14.8-33.61,9.61-74.21-16.58-103.24c-35.58-39.45-96.41-42.58-135.86-7
	c-39.45,35.58-42.58,96.41-7,135.86c26.19,29.03,66.04,38.37,100.99,27.1C282.4,276.12,248.12,267.29,225.28,241.97z"/>
<g>
	<path d="M267.88,107.22c-0.63,0.19-1.27,0.37-1.9,0.57c0.63-0.17,1.26-0.33,1.9-0.48C267.88,107.28,267.88,107.25,267.88,107.22z"
		/>
	<path d="M368.21,180.45c-0.35,0.08-0.7,0.12-1.05,0.12c-1.94,0-3.77-1.2-4.49-3.07c-0.31-0.82-0.38-1.68-0.24-2.5
		c-1.2-0.24-2.25-0.94-2.95-1.91c-0.49,0.56-1.11,0.99-1.82,1.28c1,20.99-7.07,42.25-23.9,57.42
		c-29.79,26.87-75.71,24.5-102.58-5.28c-18.98-21.05-23.35-50.14-13.79-74.89c-12.3,27.94-7.99,61.69,13.78,85.82
		c29.58,32.79,80.14,35.4,112.94,5.82c18.63-16.81,27.51-40.39,26.28-63.64C369.78,179.97,369.06,180.26,368.21,180.45z"/>
</g>
<g>
	<path d="M387.99,142.48c2.43-0.81,4.86-1.61,7.28-2.44c0.32-0.11,0.61-0.31,0.9-0.49c1.49-0.95,1.63-2.06,0.43-3.37
		c-0.05-0.06-0.1-0.13-0.16-0.16c-2.12-1.3-3.23-3.47-4.58-5.42c-0.22-0.33-0.48-0.83-0.39-1.14c0.35-1.16-0.2-1.93-0.83-2.8
		c-0.36-0.5-0.73-1.37-0.52-1.79c0.27-0.55,1.1-0.82,1.69-1.21c0.05,0.08,0.1,0.17,0.15,0.25c-0.02,0.07-0.02,0.17-0.07,0.2
		c-1.71,1.16-1.7,1.15-0.36,2.76c0.4,0.49,0.73,1.05,0.97,1.41c0.93-0.21,1.87-0.46,2.83-0.62c0.67-0.12,1.38-0.05,2.05-0.18
		c1.15-0.21,1.71-1.01,1.81-2.46c0.39,1.94-0.51,3.15-2.22,3.34c-0.64,0.07-1.3-0.03-1.94,0.06c-0.51,0.07-1.09,0.19-1.47,0.5
		c-0.46,0.38-0.75,0.9-0.03,1.5c0.52,0.43,0.8,1.14,1.21,1.71c0.23,0.33,0.45,0.67,0.74,0.95c1.34,1.27,2.7,2.53,4.24,3.96
		c-0.86-2.64,0.01-4.57,2.28-5.82c1.16-0.64,2.4-1.11,3.73-0.26c-2-0.32-3.67,0.22-4.68,2c-0.38,0.68-0.61,1.6-0.52,2.36
		c0.4,3.11-1.01,6-3.92,7.29c-1.51,0.67-3.16,1.05-4.73,1.6c-2,0.7-4.05,1.31-5.95,2.21c-2.06,0.98-4.15,1.67-6.41,1.88
		c-1.94,0.18-3.73,0.79-5.13,2.21c-1.69,1.7-3.68,2.76-6.06,3.16c-2.78,0.47-5.31,1.58-7.64,3.14c-3.54,2.37-7.48,3.68-11.6,4.56
		c-1.33,0.29-2.64,0.74-3.89,1.28c-1.99,0.87-4.04,1.33-6.21,1.21c-2.41-0.13-4.73,0.05-6.57,1.91c-0.26,0.26-0.65,0.4-1,0.54
		c-1.84,0.7-2.28,1.23-2,3.21c0.24,1.64,0.67,3.26,1.16,4.85c2.72,8.83,5.43,17.66,6.66,26.85c0.75,5.62,1.29,11.27,1.69,16.93
		c0.5,7.14,0.94,14.3,1.06,21.46c0.06,3.39-20.93,17.87-24.71,17.79c-4.32-0.09-8.61-0.73-12.75-2.2c-4.69-1.66-7.03-5.03-7.77-9.78
		c-0.85-5.44-0.72-10.88-0.03-16.3c1.22-9.54,2.47-19.09,4-28.58c0.84-5.2,2.26-10.31,3.42-15.46c0.73-3.22,1.45-6.44,2.24-9.65
		c0.22-0.91,0.49-1.9,1.05-2.61c1.52-1.93,1.08-3.81,0.03-5.65c-1.53-2.71-3.83-4.33-7.06-4.21c-3.14,0.12-6.1-0.39-8.99-1.69
		c-1.53-0.69-3.27-0.96-4.93-1.35c-3.33-0.78-6.41-2.11-9.28-3.98c-2.51-1.64-5.23-2.78-8.19-3.3c-1.84-0.33-3.55-1-4.85-2.37
		c-1.87-1.98-4.18-2.87-6.8-3.05c-1.99-0.14-3.72-0.97-5.51-1.71c-2.16-0.9-4.4-1.62-6.62-2.39c-1.18-0.41-2.38-0.75-3.56-1.17
		c-2.18-0.76-3.39-2.53-4.36-4.44c-0.34-0.68-0.36-1.65-0.22-2.44c0.59-3.19-1.51-5.46-4.74-5c-0.1,0.01-0.2,0.03-0.37,0.05
		c1.02-0.74,2.05-0.86,3.36-0.03c1,0.63,2.06,1.45,2.58,2.46c0.5,0.97,0.33,2.28,0.43,3.26c1.24-1.15,2.6-2.39,3.93-3.67
		c0.33-0.32,0.53-0.79,0.79-1.18c0.31-0.47,0.63-0.93,0.95-1.39c0.2-0.28,0.65-0.66,0.59-0.79c-0.22-0.44-0.56-0.98-0.97-1.11
		c-0.7-0.22-1.5-0.17-2.25-0.21c-2.05-0.1-3.1-1.19-2.92-3.03c0.93,2.55,1.11,1.98,4.03,2.29c0.97,0.1,1.9,0.07,2.56,0.85
		c0.53-0.72,1.03-1.46,1.58-2.15c0.93-1.16,0.92-1.28-0.36-2.05c-0.18-0.11-0.35-0.23-0.52-0.35c0.06-0.1,0.13-0.2,0.19-0.3
		c0.59,0.4,1.43,0.67,1.69,1.23c0.21,0.43-0.15,1.32-0.52,1.8c-0.65,0.86-0.9,1.62-0.89,2.77c0.01,0.98-0.85,2.06-1.53,2.93
		c-0.99,1.26-2.13,2.42-3.29,3.55c-1.53,1.49-1.46,2.95,0.49,3.77c2.6,1.1,5.3,1.93,8.07,2.73c-1.27-1.31-1.33-2.82-1.33-4.43
		c0-0.95-0.29-1.94-0.65-2.83c-0.38-0.97-0.21-1.62,0.65-2.12c0.56-0.32,1.13-0.61,1.7-0.93c0.7-0.39,1.02-0.85,0.13-1.5
		c0.08-0.05,0.16-0.11,0.24-0.16c0.3,0.25,0.74,0.46,0.85,0.78c0.09,0.27-0.09,0.79-0.33,0.99c-0.6,0.51-1.28,0.94-1.97,1.34
		c-0.65,0.37-0.63,0.76-0.36,1.41c0.4,0.96,0.84,1.99,0.87,3.01c0.05,1.68,0.65,3.01,1.98,3.91c3.6,2.46,7.63,3.82,12.01,4.49
		c0.17-1.67,0.27-3.27,0.51-4.84c0.22-1.45-0.52-2.31-1.6-2.99c-0.84-0.53-1.75-0.93-2.58-1.46c-1.54-0.99-1.8-2.09-0.93-3.69
		c1.37-2.52,0.59-4-2.27-4.33c-0.22-0.03-0.43-0.08-0.77-0.14c1.43-0.43,3.08,0.09,4.01,1.2c0.92,1.1,0.91,2.26,0.25,3.49
		c-0.71,1.33-0.59,1.65,0.78,2.42c0.66,0.37,1.34,0.71,1.78,0.94c0.71-0.89,1.4-1.67,1.99-2.53c0.31-0.45,0.48-1,0.65-1.52
		c0.07-0.2-0.02-0.45-0.06-0.68c-0.55-3.65,0.6-4.83,4.56-4.41c-0.87,0.14-1.54,0.18-2.17,0.37c-1.37,0.42-1.94,1.39-1.74,2.79
		c0.07,0.49,0.13,0.98,0.23,1.47c0.27,1.3-0.15,2.3-1.21,3.09c-0.97,0.73-1,1.2-0.31,2.2c1.68,2.44,2.51,5.1,2,8.08
		c-0.15,0.87,0.02,1.24,0.97,1.5c2.34,0.64,4.59,1.59,6.94,2.22c2.74,0.73,5.53,1.25,8.27,1.86c2.36-7.41-3.25-11.85-8.66-12.26
		c-1.6-0.12-3.22-0.54-4.74-1.08c-1.34-0.47-1.54-1.26-0.95-2.48c0.37,2.32,2.17,2.44,3.86,2.67c1.28,0.18,2.59,0.18,3.86,0.4
		c1.26,0.21,2.49,0.6,4.05,0.99c-0.42-0.54-0.74-0.89-0.99-1.29c-0.37-0.59-0.9-1.2-0.98-1.84c-0.19-1.51-0.33-2.96-2.06-3.66
		c0.13-0.11,0.25-0.23,0.38-0.34c0.55,0.44,1.22,0.79,1.61,1.34c0.39,0.57,0.54,1.32,0.72,2.02c0.22,0.84,0.52,1.53,1.33,2.02
		c0.43,0.26,0.82,0.86,0.9,1.35c0.18,1.17,0.86,1.89,1.73,2.56c0.98,0.75,1.91,1.58,2.98,2.46c1.45-0.66,2.33-1.98,2.57-3.82
		c0.13-1.01,0.31-1.91-0.15-2.96c-0.33-0.77-0.21-1.9,0.08-2.75c1.31-3.89,0.24-6.13-3.73-7.47c-0.53-0.18-1.06-0.35-1.67-0.55
		c1.57-0.88,3.64-0.08,6.26,2.28c0.32-0.84,0.55-1.76,1.01-2.54c0.51-0.86,1.39-1.25,2.5-1.13c-2.36,0.47-2.4,2.24-2.42,4.06
		c-0.02,1.6-0.06,3.19-0.17,4.78c-0.04,0.58-0.34,1.15-0.5,1.72c-0.1,0.37-0.16,0.76-0.22,1.01c1.33-0.55,2.62-1.04,3.86-1.62
		c0.28-0.13,0.54-0.53,0.62-0.85c0.24-0.92,0.38-1.86,0.8-2.73c0,1.05-0.06,2.11,0.02,3.16c0.06,0.7-0.14,1.06-0.79,1.28
		c-0.75,0.26-1.52,0.5-2.22,0.88c-0.9,0.48-1.58,1.05-1.17,2.34c0.52,1.61-0.22,3.05-1.07,4.4c-0.28,0.45-0.57,0.92-0.94,1.29
		c-1.83,1.79-1.61,3.98-1.11,6.15c0.12,0.54,0.68,1.22,1.19,1.4c2.92,1.07,5.85,2.12,8.84,2.95c2.19,0.61,4.49,0.81,6.7,1.35
		c1.43,0.35,2.78,0.98,4.38,1.56c0.43-0.49,0.99-1.12,1.32-1.5c-0.3-1.06-0.72-1.84-0.69-2.6c0.04-1.21-0.53-1.95-1.49-2.3
		c-1.41-0.52-2.9-0.86-4.37-1.21c-2.1-0.49-4.29-0.73-6.32-1.43c-1.38-0.48-2.57-1.54-3.79-2.41c-0.31-0.22-0.43-0.72-0.53-1.18
		c2.29,2.7,5.53,2.81,8.64,3.29c-0.16-0.1-0.31-0.24-0.49-0.28c-2.19-0.55-3.25-2.02-3.32-4.2c-0.05-1.42-0.45-2.61-1.65-3.48
		c0.09-0.07,0.18-0.15,0.27-0.22c0.5,0.59,1.08,1.14,1.49,1.79c0.29,0.47,0.42,1.06,0.54,1.61c0.39,1.8,1.54,2.85,3.26,3.29
		c1.25,0.32,2.54,0.47,3.8,0.77c1.13,0.27,2.23,0.66,3.04,0.9c-0.65-2.09-1.36-4.37-2.08-6.67c0.98,0.79,1.6,1.9,1.76,3.15
		c0.2,1.58,0.86,2.72,2.45,3.39c-0.44-2.45-0.03-4.73,1.18-6.89c0.24-0.43,0.08-1.2-0.12-1.73c-0.26-0.7-0.7-1.36-1.15-1.96
		c-0.99-1.34-1.73-2.77-1.99-4.42c-0.26-1.65-1.23-2.78-2.56-3.74c-2.74-1.98-5.37-4.13-8.14-6.07c-3.97-2.78-8.27-4.19-13.24-3.2
		c-3.64,0.72-7.32,1.43-11.1,0.87c-2.88-0.42-5.4-1.74-6.51-3.77c3.22,2.56,6.86,3.24,10.92,2.48c-0.33-0.13-0.58-0.26-0.83-0.33
		c-1.93-0.55-3.23-1.96-4.55-3.34c-1.32-1.38-2.82-2.49-4.78-2.64c-0.85-0.06-1.73,0.15-2.59,0.24c0.4-0.92,1.37-0.95,2.34-0.86
		c2.19,0.21,4.2,0.95,5.69,2.59c2.49,2.75,5.61,3.45,9.12,3.15c1.92-0.17,3.85-0.26,5.99-0.4c-0.49-0.22-0.79-0.42-1.13-0.51
		c-1.85-0.48-3.01-1.69-3.74-3.39c-0.63-1.46-1.62-2.48-3.54-2.44c1.28-0.4,2.21-0.28,3.02,0.49c0.57,0.54,1.05,1.2,1.47,1.87
		c0.74,1.19,1.73,1.9,3.07,2.36c2.08,0.71,4.08,1.65,6.11,2.5c0.48,0.2,0.96,0.41,1.57,0.68c-0.81-2.39-1.56-4.63-2.35-6.86
		c-0.56-1.58-1.92-2.12-3.37-2.6c-1.21-0.4-2.46-0.8-3.55-1.44c-1.51-0.88-3.1-1.2-4.79-1.27c-1.83-0.08-3.65-0.16-5.48-0.26
		c-0.33-0.02-0.66-0.16-0.98-0.24c0.02-0.17,0.04-0.33,0.06-0.5c3.52,0.14,7.04,0.28,10.47,0.41c-0.6-1.93-1.97-2.69-5.03-2.91
		c-1.57-0.11-3.14-0.46-4.66-0.9c-1.11-0.33-1.65-1.32-1.82-2.52c1.12,2.4,3.3,2.58,5.48,2.71c0.84,0.05,1.68,0.01,2.52,0.07
		c2.01,0.13,3.73,0.82,4.68,2.74c0.94,1.89,2.78,2.34,4.42,2.95c0.5-0.74,0.94-1.46,1.46-2.11c0.44-0.56,0.27-0.92-0.17-1.36
		c-0.47-0.47-0.97-0.98-1.25-1.58c-0.42-0.92-0.22-1.8,0.66-2.41c0.8-0.55,1.63-1.08,2.6-1.46c-0.52,0.48-1.01,1.01-1.58,1.43
		c-1.55,1.15-1.59,1.55-0.18,2.91c0.14,0.13,0.28,0.26,0.41,0.39c1.08,1.05,1.13,1.65,0.23,2.85c-1.02,1.36-0.96,1.68,0.22,2.87
		c0.79,0.8,1.48,1.71,2.09,2.42c1.44-2.16,2.96-4.43,4.45-6.72c0.58-0.89,1.15-1.77,1.02-2.95c-0.09-0.84,0.4-1.44,1.19-1.76
		c0.35-0.14,0.71-0.27,1.08-0.37c1.39-0.37,2.14-1.22,2.13-2.7c0-0.44,0.07-0.88,0.34-1.32c0.04,0.8,0.15,1.61,0.1,2.41
		c-0.08,1.19-0.84,1.88-1.93,2.29c-1.89,0.71-1.89,0.72-1.73,2.83c2.09-0.76,4.16-1.52,6.08-2.22c-0.87,0.86-1.69,2.15-3.25,2.43
		c-2.22,0.41-3.4,1.69-3.91,3.89c-0.3,1.27-1.01,2.46-1.65,3.62c-1.49,2.69-0.89,6.22,1.59,8.12c1.29,0.99,2.76,1.75,4.1,2.69
		c1.46,1.01,2.86,2.11,4.33,3.19c-1.32-3.09-0.6-7.15-4.45-9.12c1.63,0.67,3.3,1.15,3.85,3.21c0.8-1.37,0.86-2.5,0.35-3.77
		c-1.08-2.7-0.08-4.97,2.75-6.09c-0.55,0.59-1.1,1.18-1.66,1.76c-1.24,1.28-1.46,2.1-0.54,3.55c0.98,1.56,1.01,3.08,0.55,4.79
		c-0.22,0.83-0.2,1.8,0,2.65c0.36,1.54,0.93,3.03,1.5,4.54c0.26-1.87-0.11-3.96,1.92-5.32c-2.29,3.95-0.42,7.18,1.51,10.45
		c-0.27-2.13,0.73-3.86,1.61-5.64c0.46-0.92,0.37-1.87-0.32-2.67c-1.96-2.31-2.17-5.11-2.17-7.96c0.04,0.29,0.08,0.59,0.13,0.88
		c0.05,0.34,0.12,0.67,0.18,1.01c0.28,1.72,0.8,3.31,2.06,4.61c1.62,1.66,1.77,3.53,0.91,5.68c-0.57,1.4-0.77,2.95-0.89,4.56
		c1.01-1.97,2.9-2.87,4.41-4.2c0.62-0.55,0.75-1.67,1.06-2.54c0.16-0.43,0.23-0.9,0.4-1.61c0.63,1.95,0.13,3.98-1.16,5.28
		c-0.54,0.54-1.15,1.01-1.68,1.54c-1.68,1.67-2.04,4.19-0.97,6.29c0.27,0.53,0.39,1.14,0.53,1.73c0.28,1.14,0.53,2.29,0.79,3.43
		c0.19,0,0.39-0.01,0.58-0.01c0.15-0.8,0.48-1.62,0.41-2.41c-0.19-2.19,0.76-3.67,2.61-4.65c0.86-0.46,1.31-1.23,1.93-1.91
		c1.95-2.14,1.15-4.47,0.82-6.75c-0.3-1.99-0.75-3.91-0.32-5.98c0.3-1.45-0.97-2.26-1.99-3.06c-1.43-1.12-2.91-2.2-4.26-3.41
		c-1.59-1.43-2.51-3.21-2.41-5.44c0.1-2.31-0.68-4.25-2.56-5.69c-0.8-0.62-1.57-1.29-2.35-1.93c0.12-0.13,0.25-0.25,0.37-0.38
		c1.24,1.12,2.59,2.14,3.68,3.39c0.66,0.76,1.31,1.86,1.31,2.81c0.01,3.77,1.88,6.31,5.09,8.35c-0.34-0.61-0.57-1.08-0.84-1.52
		c-0.44-0.75-0.92-1.48-1.35-2.24c-1.04-1.87-0.6-3.68,0.29-5.44c0.77-1.53,1.59-3.04,2.25-4.3c0.17,1.09-0.22,2.4-1.02,3.66
		c-1.84,2.89-1.72,4.49,0.44,7.19c0.36,0.44,0.82,0.89,0.96,1.4c0.43,1.58,1.47,2.54,2.78,3.42c1.65,1.1,2.26,2.87,2.57,4.77
		c0.27,1.67,0.67,3.32,1.06,5.17c2.43-2.99,5.68-4.68,8.74-6.63c2.37-1.51,2.8-3.95,2.99-6.46c0.03-0.43-0.35-0.9-0.55-1.34
		c-0.79-1.76-1.7-3.48-2.35-5.29c-0.49-1.35-1.28-2.21-2.6-2.63c-0.76-0.25-1.53-0.46-2.29-0.7c-2.51-0.77-3.78-2.53-4.1-5.08
		c-0.09-0.71-0.23-1.43-0.45-2.11c-0.78-2.41-3.33-3.81-5.81-3.23c-0.2,0.05-0.41,0.04-0.72,0.07c1.62-1.4,4.65-0.36,5.69,1.05
		c0.73,0.98,1.45,2.12,1.68,3.29c0.61,2.96,2.22,4.73,5.18,5.31c0.88,0.17,1.72,0.54,2.58,0.82c0.24-2.01,0.24-2.01-1.65-2.72
		c-1.41-0.53-1.99-1.35-1.98-2.86c0-0.6,0.06-1.21,0.09-1.81c0.09-0.01,0.19-0.02,0.28-0.03c0.03,0.36,0.08,0.72,0.09,1.08
		c0.06,1.84,0.47,2.39,2.23,2.96c0.43,0.14,0.94,0.22,1.25,0.51c0.39,0.36,0.88,0.92,0.85,1.35c-0.11,1.48,0.65,2.54,1.38,3.66
		c1.4,2.12,2.8,4.24,4.11,6.23c0.76-0.86,1.69-1.88,2.61-2.92c0.55-0.62,0.61-1.25,0.09-1.96c-1.38-1.85-1.34-2.13,0.32-3.69
		c1.34-1.26,1.3-1.72-0.19-2.84c-0.58-0.44-1.1-0.97-1.48-1.67c0.94,0.65,1.94,1.24,2.82,1.97c0.9,0.76,0.59,2.44-0.52,3.42
		c-1.09,0.96-1.06,0.94-0.1,2.11c0.37,0.45,0.56,1.04,0.86,1.64c1.87-0.56,3.73-1.21,4.77-3.29c0.92-1.83,2.73-2.3,4.63-2.42
		c1.18-0.07,2.36-0.1,3.54-0.17c1.86-0.11,3.39-0.78,4.26-2.79c-0.09,1.38-0.63,2.31-1.84,2.76c-1.12,0.42-2.34,0.63-3.52,0.85
		c-0.82,0.15-1.66,0.17-2.5,0.24c-1.89,0.16-3.19,1.07-3.76,2.92c3.27-0.61,9.8-0.78,10.67,0c-0.9,0.1-1.81,0.23-2.71,0.28
		c-1.71,0.1-3.44,0.04-5.14,0.25c-1.06,0.13-2.09,0.61-3.11,0.99c-1.3,0.49-2.55,1.14-3.88,1.55c-1.75,0.54-3.06,1.43-3.62,3.27
		c-0.61,2.02-1.32,4-2.04,6.19c1.44-0.64,2.74-1.22,4.04-1.81c0.52-0.23,1.02-0.56,1.56-0.68c2.69-0.61,4.77-1.95,6.15-4.43
		c0.65-1.17,1.93-1.37,3.28-1.1c-1.96,0.12-2.88,1.41-3.58,3.01c-0.65,1.47-1.75,2.46-3.34,2.88c-0.38,0.1-0.74,0.31-1.07,0.7
		c2.98,0.07,5.97,0.2,8.95,0.18c2.02-0.02,3.75-0.91,5.16-2.37c1.75-1.81,3.79-3.06,6.35-3.26c1.01-0.08,2.06-0.13,2.6,1.14
		c-2.14-1.26-4-0.48-5.78,0.6c-0.67,0.41-1.27,0.98-1.82,1.55c-1.48,1.55-3,3.03-5.22,3.49c0.02,0.13,0.04,0.25,0.06,0.38
		c1.89-0.09,3.84,0.09,5.65-0.33c1.79-0.42,3.45-1.45,5.26-2.26c-0.29,0.35-0.53,0.74-0.86,1.03c-3.03,2.64-6.66,3.01-10.43,2.64
		c-2.87-0.28-5.72-0.83-8.59-1.18c-2.68-0.33-5.19,0.28-7.63,1.44c-3.55,1.69-6.24,4.59-9.53,6.63c-0.45,0.28-0.85,0.65-1.31,0.92
		c-2.04,1.18-3.23,2.86-3.6,5.25c-0.15,0.96-0.81,1.86-1.29,2.75c-0.51,0.93-1.17,1.79-1.6,2.75c-0.22,0.5-0.28,1.27-0.04,1.72
		c1.14,2.14,1.58,4.35,1.07,6.88c1.38-0.75,2.28-1.61,2.43-3.15c0.12-1.28,0.69-2.39,1.74-3.23c-1.5,2-0.28,5.01-2.37,6.44
		c1.95-0.45,4.13-1,6.34-1.46c2.26-0.46,3.82-1.54,4.26-3.97c0.19-1.09,0.65-2.14,1.82-2.63c-0.97,0.98-1.25,2.18-1.31,3.51
		c-0.1,2.04-1.07,3.45-3.1,4.01c-0.24,0.07-0.47,0.19-0.67,0.38c3.09-0.48,6.3-0.65,8.56-3.48c-0.09,1.04-0.64,1.81-1.75,2.56
		c-2.18,1.47-4.69,1.9-7.2,2.36c-1.82,0.33-3.66,0.67-5.44,1.18c-1.31,0.38-2.2,1.23-2.08,2.85c0.05,0.67-0.39,1.38-0.68,2.29
		c0.35,0.4,0.89,1.03,1.45,1.67c3.31-1.91,7-2.17,10.53-2.99c2.36-0.55,4.63-1.44,6.94-2.18c0.58-0.19,1.16-0.36,1.71-0.6
		c0.48-0.21,1.02-0.41,1.35-0.78c0.83-0.92,1.09-4.23,0.44-5.31c-0.63-1.04-1.37-2.02-2.03-3.04c-0.97-1.48-1.53-3.03-0.95-4.85
		c0.29-0.92-0.49-1.39-1.13-1.76c-0.69-0.39-1.44-0.69-2.21-0.9c-1-0.27-1-0.9-0.92-1.74c0.09-0.97-0.01-1.95-0.03-2.84
		c0.74,0.53,0.79,1.62,0.82,2.62c0.02,0.79,0.37,0.99,1,1.22c1.13,0.4,2.21,0.92,3.38,1.41c0-0.15,0.12-0.55-0.02-0.81
		c-0.83-1.54-0.85-3.2-0.79-4.88c0.03-0.87,0.02-1.75,0-2.63c-0.04-1.58-0.5-2.86-2.56-3.14c2.01-0.24,2.81,0.62,3.61,3.52
		c0.93-0.65,1.84-1.37,2.83-1.95c1.02-0.6,2.16-0.77,3.31-0.56c0.03,0.1,0.06,0.2,0.09,0.3c-0.36,0.12-0.72,0.24-1.08,0.35
		c-1.55,0.48-2.94,1.23-4.02,2.49c-1.08,1.26-1.25,2.67-0.58,4.15c0.7,1.56,1.08,3.05,0.12,4.68c-0.49,0.84,0.67,4.22,1.59,5.01
		c0.42,0.37,0.9,0.67,1.18,0.88c0.97-0.83,1.82-1.62,2.75-2.33c0.96-0.74,1.81-1.46,1.94-2.8c0.04-0.45,0.46-1.03,0.88-1.25
		c0.92-0.51,1.17-1.29,1.38-2.21c0.31-1.37,0.69-2.77,2.42-3.06c0.03,0.08,0.08,0.2,0.07,0.21c-1.47,0.84-1.73,2.23-1.89,3.76
		c-0.06,0.61-0.57,1.18-0.92,1.74c-0.26,0.41-0.61,0.77-0.83,1.28c2.66-1.15,5.45-1.09,8.19-1.41c2.13-0.25,2.64-0.68,3.45-2.5
		c0.48,1.07,0.35,1.83-0.81,2.25c-1.55,0.57-3.19,0.93-4.83,1.19c-2.57,0.4-5.11,0.89-6.82,3c-1.05,1.3-1.91,2.84-2.52,4.4
		c-0.32,0.83,0.06,1.94,0.15,2.92c0.05,0.53,0.16,1.05,0.26,1.67c3.12-0.19,6.19-0.71,9.16-1.79c2.1-0.76,4.23-1.46,6.38-2.08
		c0.71-0.2,1-0.48,0.84-1.16c-0.58-2.47,0.05-4.75,1.08-6.96c0.27-0.58,0.66-1.1,1.03-1.62c0.48-0.68,0.49-1.36-0.22-1.78
		c-1.45-0.88-1.73-2.19-1.38-3.66c0.65-2.71-0.22-4.01-3.4-4.2c2.73-0.73,4.98,0.85,4.3,3.67c-0.34,1.41-0.17,2.66,1.24,3.58
		c0.51,0.34,0.68,1.21,1.06,1.96c0.79-0.43,1.72-0.89,2.61-1.43c0.91-0.56,0.5-1.29,0.16-2c-0.78-1.59-0.65-2.66,0.41-3.76
		c0.86-0.89,2.33-1.3,3.81-0.89c-0.41,0.03-0.81,0.05-1.22,0.1c-2.18,0.26-3.11,2.05-2.05,3.92c1.23,2.15,0.91,3.27-1.27,4.41
		c-4.45,2.33-3.79,2.56-3.39,6.25c0.09,0.87,0.2,1.73,0.34,2.84c2.05-0.56,4.11-0.94,6.03-1.7c2.07-0.81,4.07-1.87,5.99-3.01
		c1.26-0.75,1.81-2.02,1.9-3.57c0.06-1.1,0.44-2.22,0.88-3.25c0.32-0.74,0.23-1.12-0.41-1.49c-0.59-0.34-1.21-0.66-1.73-1.1
		c-0.92-0.79-0.79-1.32,0.67-2.02c-1.11,1.08-0.47,1.51,0.32,1.89c0.17,0.08,0.34,0.16,0.51,0.25c1.98,1.05,2.04,1.29,1.23,3.37
		c-0.25,0.65-0.42,1.4-0.36,2.08c0.14,1.59-0.05,3.04-1.27,4.22C387.87,142.28,387.93,142.38,387.99,142.48z"/>
	<g>
		<path d="M241.56,146.86c-0.68,1-1.13,1.14-2.17,0.5c-1.12-0.7-2.2-0.73-3.32-0.01c-0.41,0.27-0.85,0.5-1.28,0.74
			c-1.23,0.7-2.35,0.51-3.23-0.61c-0.41-0.52-0.68-1.14-1.13-1.89c1.04,3.84,2.56,4.49,5.76,2.66c0.2-0.11,0.4-0.29,0.61-0.3
			c0.55-0.03,1.13-0.07,1.66,0.06c1.01,0.25,1.99,0.61,3.08,0.95c-0.06,0.49-0.12,1.25-0.23,2c-0.22,1.55-0.48,1.78-1.98,1.6
			c-1.39-0.17-2.48,0.24-3.17,1.49c-0.7,1.26-0.59,2.99,0.33,4.17c-0.06-0.34-0.09-0.56-0.14-0.77c-0.72-2.79,0.38-4.05,3.22-3.68
			c1.8,0.23,2.74-0.4,3.1-2.2c0.2-0.97,0.24-1.97,0.43-2.94c0.25-1.25,0.78-2.26,2.22-2.57c1.1-0.24,2.19-0.55,3.3-0.87l-0.75-2.99
			C245.17,142.87,243.13,144.54,241.56,146.86z"/>
		<path d="M263.66,150.15c-0.18,0.97-0.11,2.14-0.64,2.85c-1.01,1.34-2.25,2.59-3.61,3.56c-2.22,1.58-4.8,1.36-7.38,1.06
			c-1.64-0.19-3.33-0.28-4.97-0.16c-1.18,0.09-1.53,0.74-1.4,1.83c0.01,0.04,0.06,0.06,0.09,0.03c1.21-1.46,1.84-1.72,3.92-1.39
			c2.68,0.42,5.32,1.21,8.14,0.86c0.05-0.01,0.08,0.05,0.05,0.08c-0.33,0.37-0.72,0.61-1.05,0.9c-0.49,0.44-1.13,0.86-1.36,1.43
			c-0.56,1.43-1.18,2.71-2.83,3.12c-0.01,0,0.01,0.13,0.01,0.22c1.74,0.18,2.48-1.06,3.15-2.3c0.45-0.83,0.9-1.52,1.93-1.76
			c0.46-0.11,1.02-0.55,1.18-0.97c0.48-1.26,1.5-1.73,2.62-2.18c1.07-0.43,2.09-0.96,3.23-1.49c0.02-0.01,0.05-0.01,0.06,0.01
			c0.22,0.28,0.58,0.69,0.87,1.14c0.67,1.01,0.88,4.58,0.18,5.25c-1.36,1.31-1.4,2.85-1.14,4.54c0.25,1.61-0.29,2.91-1.67,3.84
			c-1.38,0.92-2.91,1.27-4.54,1.32c-0.29,0.01-0.58,0.02-0.87,0.04c-0.04,0.22-0.04,0.19-0.08,0.42c1,0.44,2.07,0.55,3.15,0.26
			c1.09-0.29,2.14-0.73,3.18-1.09c0.03-0.01,0.07,0.01,0.07,0.05c0,2.75,0.47,3.83,2.14,4.21c0.06,0.01,0.09-0.07,0.03-0.1
			c-1.57-0.84-1.63-2.12-1.27-3.55c0.21-0.85,0.44-1.7,0.71-2.53c0.51-1.6,0.94-3.2,0.55-4.91c-0.06-0.25,0.11-0.55,0.18-0.72
			c0.01-0.03,0.05-0.04,0.08-0.02c0.97,0.78,1.86,1.55,2.82,2.22c0.55,0.39,0.83,0.68,0.64,1.44c-0.23,0.92-0.47,1.94,0.02,2.65
			c0.02,0.04,0.08,0.03,0.09-0.02c0.21-0.83,0.38-1.77,0.71-2.64c0.31-0.8,0.47-1.41-0.45-1.94c-0.77-0.45-1.47-1.02-2.08-1.68
			c-0.45-0.48-0.84-1.07-0.39-1.76c1.04-1.59,0.92-3.24,0.39-4.93c-0.37-1.16-0.81-2.3-1.14-3.47c-0.26-0.92,0.33-2.93,1.09-4.14
			c0.02-0.03,0-0.08-0.04-0.08l-4.23-0.04c-0.03,0-0.05,0.02-0.05,0.05C263.71,149.84,263.69,150,263.66,150.15z"/>
		<path d="M295.6,162.25c-0.52,4.2,0.15,4.62-5.39,6.05c-2.72,0.7-3.36,1.86-2.56,4.56c0.7,2.35-0.8,4.09-3.29,3.81
			c-0.46-0.05-0.92-0.14-1.37-0.21c1.53,0.84,3.27,0.77,4.45,0.01c1.47-0.94,1.88-2.09,1.44-4.06c-0.2-0.87-0.46-1.79,0.69-2.17
			c1.12-0.37,2.28-0.64,3.27-0.91c0.23,0.93,0.18,1.94,0.66,2.44c1.33,1.39,1.19,2.82,0.44,4.3c-1.48,2.94,0.6,5.29,3.82,5.19
			c-3.47-1.04-4.1-2.72-2.67-5.55c0.77-1.53,0.8-3.06-0.58-4.42c-0.67-0.66-0.48-1.41,0.22-2.03c0.55-0.48,1.12-0.96,1.57-1.53
			c1.67-2.13,2.94-4.42,3-7.21l-3.58,0.71C295.68,161.58,295.65,161.92,295.6,162.25z"/>
		<path d="M287.83,169.02c-2.31-0.34-2.55,0.03-3.27-3.04c-0.35-1.51-0.99-1.88-2.48-1.47c-1.3,0.36-2.25-0.49-2.06-1.86
			c0.03-0.25,0.09-0.5,0.13-0.76c-0.48,0.84-0.46,1.79-0.06,2.45c0.5,0.82,1.13,1.06,2.22,0.84c0.48-0.1,0.99-0.23,1.19,0.41
			c0.19,0.62,0.33,1.27,0.46,1.81c-0.51,0.12-1.07,0.08-1.36,0.34c-0.78,0.72-1.57,0.62-2.38,0.19c-1.61-0.85-2.92,0.27-2.91,2.04
			c0.61-1.9,1.55-2.23,3.09-1.41c0.84,0.44,1.68,0.48,2.44-0.27c0.37-0.36,0.78-0.25,1.12,0.15c0.26,0.31,0.52,0.63,0.83,0.88
			c1.15,0.95,2.41,1.67,3.94,1.74l-0.35-1.98C288.21,169.07,288.02,169.05,287.83,169.02z"/>
	</g>
	<g>
		<path d="M391.68,146.86c0.68,1,1.13,1.14,2.17,0.5c1.12-0.7,2.2-0.73,3.32-0.01c0.41,0.27,0.85,0.5,1.28,0.74
			c1.23,0.7,2.35,0.51,3.23-0.61c0.41-0.52,0.68-1.14,1.13-1.89c-1.04,3.84-2.56,4.49-5.76,2.66c-0.2-0.11-0.4-0.29-0.61-0.3
			c-0.55-0.03-1.13-0.07-1.66,0.06c-1.01,0.25-1.99,0.61-3.08,0.95c0.06,0.49,0.12,1.25,0.23,2c0.22,1.55,0.48,1.78,1.98,1.6
			c1.39-0.17,2.48,0.24,3.17,1.49c0.7,1.26,0.59,2.99-0.33,4.17c0.06-0.34,0.09-0.56,0.14-0.77c0.72-2.79-0.38-4.05-3.22-3.68
			c-1.8,0.23-2.74-0.4-3.1-2.2c-0.2-0.97-0.24-1.97-0.43-2.94c-0.25-1.25-0.78-2.26-2.22-2.57c-1.1-0.24-2.19-0.55-3.3-0.87
			l0.75-2.99C388.07,142.87,390.11,144.54,391.68,146.86z"/>
		<path d="M369.58,150.15c0.18,0.97,0.11,2.14,0.64,2.85c1.01,1.34,2.25,2.59,3.61,3.56c2.22,1.58,4.8,1.36,7.38,1.06
			c1.64-0.19,3.33-0.28,4.97-0.16c1.18,0.09,1.53,0.74,1.4,1.83c-0.01,0.04-0.06,0.06-0.09,0.03c-1.21-1.46-1.84-1.72-3.92-1.39
			c-2.68,0.42-5.32,1.21-8.14,0.86c-0.05-0.01-0.08,0.05-0.05,0.08c0.33,0.37,0.72,0.61,1.06,0.9c0.49,0.44,1.13,0.86,1.36,1.43
			c0.56,1.43,1.18,2.71,2.83,3.12c0.01,0-0.01,0.13-0.01,0.22c-1.74,0.18-2.48-1.06-3.15-2.3c-0.45-0.83-0.9-1.52-1.93-1.76
			c-0.46-0.11-1.02-0.55-1.18-0.97c-0.48-1.26-1.5-1.73-2.62-2.18c-1.07-0.43-2.09-0.96-3.23-1.49c-0.02-0.01-0.05-0.01-0.06,0.01
			c-0.22,0.28-0.58,0.69-0.87,1.14c-0.67,1.01-0.88,4.58-0.18,5.25c1.36,1.31,1.4,2.85,1.14,4.54c-0.25,1.61,0.29,2.91,1.67,3.84
			c1.38,0.92,2.91,1.27,4.54,1.32c0.29,0.01,0.58,0.02,0.87,0.04c0.04,0.22,0.04,0.19,0.08,0.42c-1,0.44-2.07,0.55-3.15,0.26
			c-1.09-0.29-2.14-0.73-3.18-1.09c-0.03-0.01-0.07,0.01-0.07,0.05c0,2.75-0.47,3.83-2.14,4.21c-0.06,0.01-0.09-0.07-0.03-0.1
			c1.57-0.84,1.63-2.12,1.27-3.55c-0.21-0.85-0.44-1.7-0.71-2.53c-0.51-1.6-0.94-3.2-0.55-4.91c0.06-0.25-0.11-0.55-0.18-0.72
			c-0.01-0.03-0.05-0.04-0.08-0.02c-0.97,0.78-1.86,1.55-2.82,2.22c-0.55,0.39-0.83,0.68-0.64,1.44c0.23,0.92,0.47,1.94-0.02,2.65
			c-0.02,0.04-0.08,0.03-0.09-0.02c-0.21-0.83-0.38-1.77-0.71-2.64c-0.31-0.8-0.47-1.41,0.45-1.94c0.77-0.45,1.47-1.02,2.08-1.68
			c0.45-0.48,0.84-1.07,0.39-1.76c-1.04-1.59-0.92-3.24-0.39-4.93c0.37-1.16,0.81-2.3,1.14-3.47c0.26-0.92-0.33-2.93-1.09-4.14
			c-0.02-0.03,0-0.08,0.04-0.08l4.23-0.04c0.03,0,0.05,0.02,0.05,0.05C369.53,149.84,369.55,150,369.58,150.15z"/>
		<path d="M337.64,162.25c0.52,4.2-0.15,4.62,5.39,6.05c2.72,0.7,3.36,1.86,2.56,4.56c-0.7,2.35,0.8,4.09,3.29,3.81
			c0.46-0.05,0.92-0.14,1.37-0.21c-1.53,0.84-3.27,0.77-4.45,0.01c-1.47-0.94-1.88-2.09-1.44-4.06c0.2-0.87,0.46-1.79-0.69-2.17
			c-1.12-0.37-2.28-0.64-3.27-0.91c-0.23,0.93-0.18,1.94-0.66,2.44c-1.33,1.39-1.19,2.82-0.44,4.3c1.48,2.94-0.6,5.29-3.82,5.19
			c3.47-1.04,4.1-2.72,2.67-5.55c-0.77-1.53-0.8-3.06,0.58-4.42c0.67-0.66,0.48-1.41-0.22-2.03c-0.55-0.48-1.12-0.96-1.57-1.53
			c-1.67-2.13-2.94-4.42-3-7.21l3.58,0.71C337.55,161.58,337.59,161.92,337.64,162.25z"/>
		<path d="M345.4,169.02c2.31-0.34,2.55,0.03,3.27-3.04c0.35-1.51,0.99-1.88,2.48-1.47c1.3,0.36,2.25-0.49,2.06-1.86
			c-0.03-0.25-0.09-0.5-0.13-0.76c0.48,0.84,0.46,1.79,0.06,2.45c-0.5,0.82-1.13,1.06-2.22,0.84c-0.48-0.1-0.99-0.23-1.19,0.41
			c-0.19,0.62-0.33,1.27-0.46,1.81c0.51,0.12,1.07,0.08,1.36,0.34c0.78,0.72,1.57,0.62,2.38,0.19c1.61-0.85,2.92,0.27,2.91,2.04
			c-0.61-1.9-1.55-2.23-3.09-1.41c-0.84,0.44-1.68,0.48-2.44-0.27c-0.37-0.36-0.78-0.25-1.12,0.15c-0.26,0.31-0.52,0.63-0.83,0.88
			c-1.15,0.95-2.41,1.67-3.94,1.74l0.35-1.98C345.03,169.07,345.22,169.05,345.4,169.02z"/>
	</g>
</g>
<linearGradient id="SVGID_2_" gradientUnits="userSpaceOnUse" x1="237.807" y1="183.9942" x2="256.8065" y2="183.9942">
	<stop  offset="0" style="stop-color:#FF953C"/>
	<stop  offset="1" style="stop-color:#FF5631"/>
</linearGradient>
<path class="st1" d="M256.72,180.84c0.15-0.1,0.11-0.38-0.09-0.39c-1.44-0.11-2.89,0.69-3.99,1.55c-0.6,0.47-1.16,0.93-1.63,1.53
	c-0.28,0.36-0.59,0.71-0.87,1.08c-0.27-0.09-0.54-0.22-0.81-0.32c-0.65-0.23-1.3-0.42-1.96-0.58c-1.21-0.29-2.38-0.59-3.63-0.71
	c-2.05-0.19-4.13,0.07-5.83,1.31c-0.26,0.19,0.01,0.58,0.29,0.41c1.72-1.05,3.9-1.37,5.87-0.89c1.14,0.28,2.21,0.77,3.18,1.42
	c0.46,0.31,0.92,0.62,1.37,0.93c0.57,0.39,0.99,0.9,1.61,1.23c0.85,0.45,1.65-0.22,1.89-0.99c0.17-0.58,0.2-1.21,0.46-1.76
	c0.26-0.54,0.65-1.14,1.06-1.58C254.52,182.1,255.65,181.57,256.72,180.84z"/>
<linearGradient id="SVGID_3_" gradientUnits="userSpaceOnUse" x1="260.4473" y1="189.6159" x2="268.4639" y2="189.6159">
	<stop  offset="0" style="stop-color:#FF953C"/>
	<stop  offset="1" style="stop-color:#FF5631"/>
</linearGradient>
<path class="st2" d="M268.19,185.19c-0.58,0.18-1.07,0.35-1.53,0.77c-0.46,0.42-0.82,0.89-1.14,1.42c-0.31,0.51-0.54,1.05-0.76,1.6
	c-0.17,0.42-0.3,0.82-0.4,1.23c-0.26,0.12-0.51,0.27-0.79,0.37c-0.47,0.17-0.92,0.36-1.34,0.64c-0.82,0.56-1.53,1.37-1.78,2.35
	c-0.1,0.41,0.49,0.68,0.7,0.29c0.39-0.72,0.85-1.39,1.55-1.85c0.32-0.22,0.69-0.42,1.06-0.52c0.14-0.04,0.35-0.09,0.5-0.05
	c0.21,0.05,0.39,0.2,0.61,0.24c0.59,0.1,1.04-0.23,1.1-0.83c0.04-0.47,0.02-0.97,0.13-1.44c0.12-0.5,0.35-0.98,0.6-1.42
	c0.25-0.42,0.54-0.85,0.85-1.23c0.33-0.4,0.56-0.86,0.87-1.27C268.54,185.34,268.36,185.13,268.19,185.19z"/>
<linearGradient id="SVGID_4_" gradientUnits="userSpaceOnUse" x1="246.8708" y1="200.1089" x2="257.688" y2="200.1089">
	<stop  offset="0" style="stop-color:#FF953C"/>
	<stop  offset="1" style="stop-color:#FF5631"/>
</linearGradient>
<path class="st3" d="M257.62,198.97c-0.3-0.41-0.99-0.65-1.47-0.77c-0.65-0.17-1.36-0.1-2,0.11c-0.88,0.28-2.09,1-2.54,1.94
	c-0.84-0.25-1.73-0.28-2.57-0.05c-0.73,0.19-2.34,0.78-2.16,1.75c0.01,0.08,0.08,0.15,0.16,0.16c0.43,0.05,0.68-0.21,1.02-0.43
	c0.36-0.24,0.77-0.41,1.19-0.51c0.74-0.17,1.49-0.12,2.2,0.14c0.18,0.5,0.86,0.9,1.31,0.44c0.36-0.37,0.55-0.79,0.86-1.19
	c0.27-0.34,0.65-0.56,1.04-0.74c0.41-0.19,0.83-0.29,1.28-0.36c0.22-0.04,0.44-0.08,0.66-0.07c0.25,0.01,0.49,0.11,0.73,0.1
	C257.6,199.47,257.8,199.21,257.62,198.97z"/>
<linearGradient id="SVGID_5_" gradientUnits="userSpaceOnUse" x1="232.0197" y1="211.0403" x2="240.1367" y2="211.0403">
	<stop  offset="0" style="stop-color:#FF953C"/>
	<stop  offset="1" style="stop-color:#FF5631"/>
</linearGradient>
<path class="st4" d="M240.14,213.19c-0.04-0.42-0.29-0.8-0.56-1.11c-0.22-0.66-1.15-1.16-1.77-1.26c-0.49-0.08-0.99-0.08-1.48,0.01
	c-0.01-0.05-0.01-0.11-0.03-0.16c-0.07-0.25-0.17-0.51-0.31-0.74c-0.25-0.41-0.67-0.79-1.11-1.01c-0.93-0.46-2.02-0.33-2.78,0.38
	c-0.25,0.24,0.08,0.69,0.37,0.49c0.58-0.38,1.37-0.5,2-0.17c0.32,0.17,0.5,0.41,0.64,0.73c0.09,0.2,0.2,0.58,0.12,0.82
	c-0.09,0.09-0.17,0.19-0.25,0.32c-0.19,0.3-0.11,0.73,0.13,0.98c0.27,0.27,0.64,0.28,0.98,0.14c0.46-0.19,0.94-0.24,1.43-0.16
	c0.29,0.05,0.55,0.06,0.83,0.15c0.21,0.07,0.41,0.12,0.62,0.15c0.29,0.19,0.53,0.44,0.81,0.64
	C239.93,213.49,240.15,213.35,240.14,213.19z"/>
<g>
	<g>
		<linearGradient id="SVGID_6_" gradientUnits="userSpaceOnUse" x1="288" y1="278.0509" x2="288" y2="323.4005">
			<stop  offset="0" style="stop-color:#FF953C"/>
			<stop  offset="1" style="stop-color:#FF5631"/>
		</linearGradient>
		<path class="st5" d="M108,286.56h36.3c5.19,0,8.97,0.81,11.36,2.44c2.39,1.63,3.58,4.41,3.58,8.35c0,1.7-0.14,3.11-0.43,4.23
			c-0.28,1.12-0.69,2.01-1.22,2.67c-0.53,0.66-1.15,1.18-1.85,1.53c-0.7,0.36-1.56,0.69-2.58,1v0.17c2.73,0.34,4.67,1.28,5.82,2.81
			c1.16,1.53,1.73,3.87,1.73,7.01c0,2.2-0.3,4.01-0.91,5.45c-0.61,1.44-1.47,2.55-2.58,3.32c-1.12,0.78-2.42,1.33-3.92,1.65
			c-1.5,0.32-3.21,0.48-5.14,0.48H108V286.56z M120.61,302.86h22.32c1.21,0,2.13-0.25,2.75-0.74c0.62-0.49,0.94-1.31,0.94-2.44
			c0-1.14-0.31-1.96-0.94-2.47c-0.62-0.51-1.54-0.77-2.75-0.77h-22.32V302.86z M120.61,317.8h22.61c1.48,0,2.6-0.22,3.38-0.65
			c0.78-0.43,1.16-1.22,1.16-2.36c0-1.29-0.38-2.18-1.14-2.67c-0.76-0.49-1.89-0.74-3.41-0.74h-22.61V317.8z"/>
		<linearGradient id="SVGID_7_" gradientUnits="userSpaceOnUse" x1="288" y1="278.0509" x2="288" y2="323.4005">
			<stop  offset="0" style="stop-color:#FF953C"/>
			<stop  offset="1" style="stop-color:#FF5631"/>
		</linearGradient>
		<path class="st6" d="M186.55,286.56h16.42l22.61,41.12h-14.03l-3.92-7.27h-25.56l-3.69,7.27h-14.09L186.55,286.56z M186.78,311.55
			h16.13l-8.18-15.45L186.78,311.55z"/>
		<linearGradient id="SVGID_8_" gradientUnits="userSpaceOnUse" x1="288" y1="278.0509" x2="288" y2="323.4005">
			<stop  offset="0" style="stop-color:#FF953C"/>
			<stop  offset="1" style="stop-color:#FF5631"/>
		</linearGradient>
		<path class="st7" d="M229.16,300.99c0-2.95,0.41-5.4,1.22-7.36c0.81-1.95,1.99-3.47,3.52-4.57c1.53-1.1,3.39-1.86,5.57-2.3
			c2.18-0.43,4.78-0.65,7.81-0.65h20.22c3.03,0,5.63,0.23,7.81,0.68c2.18,0.45,4.04,1.22,5.59,2.3c1.55,1.08,2.73,2.59,3.52,4.54
			c0.8,1.95,1.19,4.4,1.19,7.36v12.27c0,2.95-0.4,5.4-1.19,7.33c-0.8,1.93-1.97,3.45-3.52,4.54c-1.55,1.1-3.42,1.87-5.59,2.33
			c-2.18,0.45-4.78,0.68-7.81,0.68h-20.22c-3.03,0-5.63-0.23-7.81-0.68c-2.18-0.45-4.03-1.22-5.57-2.3
			c-1.53-1.08-2.71-2.59-3.52-4.54c-0.81-1.95-1.22-4.4-1.22-7.36V300.99z M242.11,309.34c0,3.11,0.48,5.25,1.45,6.45
			c0.97,1.19,2.89,1.79,5.76,1.79h16.13c2.88,0,4.8-0.6,5.77-1.79c0.97-1.19,1.45-3.34,1.45-6.45v-4.43c0-2.8-0.54-4.87-1.62-6.22
			c-1.08-1.34-3.17-2.02-6.28-2.02H250c-3.1,0-5.2,0.67-6.28,2.02c-1.08,1.34-1.62,3.42-1.62,6.22V309.34z"/>
		<linearGradient id="SVGID_9_" gradientUnits="userSpaceOnUse" x1="288" y1="278.0509" x2="288" y2="323.4005">
			<stop  offset="0" style="stop-color:#FF953C"/>
			<stop  offset="1" style="stop-color:#FF5631"/>
		</linearGradient>
		<path class="st8" d="M293.23,286.56h36.3c5.19,0,8.97,0.81,11.36,2.44c2.38,1.63,3.58,4.41,3.58,8.35c0,1.7-0.14,3.11-0.43,4.23
			c-0.28,1.12-0.69,2.01-1.22,2.67c-0.53,0.66-1.14,1.18-1.84,1.53c-0.7,0.36-1.56,0.69-2.58,1v0.17c2.73,0.34,4.67,1.28,5.82,2.81
			c1.15,1.53,1.73,3.87,1.73,7.01c0,2.2-0.31,4.01-0.91,5.45c-0.6,1.44-1.47,2.55-2.58,3.32c-1.12,0.78-2.42,1.33-3.92,1.65
			c-1.5,0.32-3.21,0.48-5.14,0.48h-40.16V286.56z M305.84,302.86h22.32c1.21,0,2.13-0.25,2.75-0.74c0.63-0.49,0.94-1.31,0.94-2.44
			c0-1.14-0.31-1.96-0.94-2.47c-0.62-0.51-1.54-0.77-2.75-0.77h-22.32V302.86z M305.84,317.8h22.6c1.48,0,2.61-0.22,3.38-0.65
			s1.16-1.22,1.16-2.36c0-1.29-0.38-2.18-1.14-2.67c-0.76-0.49-1.9-0.74-3.41-0.74h-22.6V317.8z"/>
		<linearGradient id="SVGID_10_" gradientUnits="userSpaceOnUse" x1="288" y1="278.0509" x2="288" y2="323.4005">
			<stop  offset="0" style="stop-color:#FF953C"/>
			<stop  offset="1" style="stop-color:#FF5631"/>
		</linearGradient>
		<path class="st9" d="M371.78,286.56h16.42l22.61,41.12h-14.03l-3.92-7.27h-25.56l-3.69,7.27h-14.09L371.78,286.56z M372.01,311.55
			h16.13l-8.18-15.45L372.01,311.55z"/>
		<linearGradient id="SVGID_11_" gradientUnits="userSpaceOnUse" x1="288" y1="278.0509" x2="288" y2="323.4005">
			<stop  offset="0" style="stop-color:#FF953C"/>
			<stop  offset="1" style="stop-color:#FF5631"/>
		</linearGradient>
		<path class="st10" d="M415.29,286.56h36.3c5.19,0,8.98,0.81,11.36,2.44c2.39,1.63,3.58,4.41,3.58,8.35c0,1.7-0.14,3.11-0.43,4.23
			c-0.28,1.12-0.69,2.01-1.22,2.67c-0.53,0.66-1.14,1.18-1.84,1.53c-0.7,0.36-1.56,0.69-2.59,1v0.17c2.73,0.34,4.67,1.28,5.82,2.81
			c1.16,1.53,1.73,3.87,1.73,7.01c0,2.2-0.3,4.01-0.91,5.45c-0.61,1.44-1.47,2.55-2.59,3.32c-1.12,0.78-2.42,1.33-3.92,1.65
			c-1.5,0.32-3.21,0.48-5.14,0.48h-40.16V286.56z M427.9,302.86h22.32c1.21,0,2.13-0.25,2.75-0.74c0.62-0.49,0.94-1.31,0.94-2.44
			c0-1.14-0.31-1.96-0.94-2.47c-0.62-0.51-1.54-0.77-2.75-0.77H427.9V302.86z M427.9,317.8h22.61c1.48,0,2.6-0.22,3.38-0.65
			c0.78-0.43,1.16-1.22,1.16-2.36c0-1.29-0.38-2.18-1.14-2.67c-0.76-0.49-1.89-0.74-3.41-0.74H427.9V317.8z"/>
	</g>
</g>
<g>
	<path d="M194.81,345.87c0-1.3,0.18-2.38,0.54-3.23c0.36-0.86,0.87-1.53,1.55-2.01c0.67-0.48,1.49-0.82,2.45-1.01
		s2.1-0.29,3.43-0.29h8.34c1.53,0,2.77,0.13,3.73,0.4c0.96,0.27,1.68,0.64,2.17,1.14c0.49,0.49,0.82,1.08,1,1.76
		c0.18,0.68,0.26,1.51,0.26,2.5v0.57h-5.44c0-0.83-0.22-1.38-0.65-1.64s-1.15-0.39-2.15-0.39h-6.02c-0.73,0-1.32,0.05-1.76,0.16
		c-0.44,0.11-0.79,0.29-1.05,0.56c-0.26,0.27-0.44,0.64-0.55,1.12c-0.11,0.48-0.16,1.12-0.16,1.92v2.25c0,0.8,0.05,1.44,0.16,1.92
		c0.11,0.48,0.29,0.86,0.55,1.12c0.26,0.27,0.61,0.45,1.05,0.56c0.44,0.11,1.03,0.16,1.76,0.16h5.92c0.42,0,0.79-0.03,1.12-0.07
		c0.33-0.05,0.63-0.14,0.9-0.27c0.27-0.13,0.48-0.33,0.64-0.6c0.16-0.27,0.24-0.61,0.24-1.02v-0.52h-6.89v-3.74h12.43v5.14
		c0,1.28-0.17,2.29-0.51,3.02c-0.34,0.73-0.86,1.27-1.56,1.62s-1.56,0.57-2.58,0.66c-1.02,0.09-2.45,0.14-4.28,0.14h-6.66
		c-1.33,0-2.48-0.1-3.43-0.3c-0.96-0.2-1.77-0.54-2.45-1.01c-0.67-0.47-1.19-1.14-1.55-2c-0.36-0.86-0.54-1.93-0.54-3.23V345.87z"/>
	<path d="M242.21,339.53h7.21l9.93,18.07h-6.16l-1.72-3.19h-11.23l-1.62,3.19h-6.19L242.21,339.53z M242.3,350.51h7.09l-3.59-6.79
		L242.3,350.51z"/>
	<path d="M273.8,339.53h8.51l6.27,11.63l6.26-11.63h8.51v18.07h-5.39v-12.98h-0.05l-7.26,12.98h-4.14l-7.26-12.98h-0.05v12.98h-5.39
		V339.53z"/>
	<path d="M319.58,339.53h19.77v4.19h-14.23v2.89h13.48v3.74h-13.48v2.89h14.55v4.34h-20.09V339.53z"/>
	<path d="M355.17,351.68h5.54c0.02,0.9,0.19,1.47,0.54,1.71c0.34,0.24,0.96,0.36,1.86,0.36h6.79c0.75,0,1.33-0.09,1.75-0.29
		c0.42-0.19,0.62-0.6,0.62-1.24c0-0.43-0.08-0.75-0.24-0.96c-0.16-0.21-0.48-0.36-0.97-0.46c-0.49-0.1-1.21-0.17-2.15-0.2
		c-0.94-0.03-2.42-0.05-4.43-0.05c-2.15,0-3.82-0.08-5.03-0.24s-2.11-0.43-2.72-0.81c-0.61-0.38-1.02-0.91-1.22-1.58
		c-0.21-0.67-0.31-1.61-0.31-2.81c0-1,0.06-1.82,0.19-2.46c0.13-0.64,0.42-1.22,0.89-1.72c0.47-0.51,1.2-0.9,2.2-1.18
		c1-0.28,2.34-0.43,4.02-0.43h7.74c1.55,0,2.8,0.13,3.74,0.37c0.95,0.25,1.65,0.6,2.11,1.06c0.46,0.46,0.76,1,0.91,1.62
		c0.15,0.62,0.23,1.38,0.23,2.28v0.57h-5.54c0-0.73-0.15-1.23-0.45-1.49c-0.3-0.26-1.05-0.39-2.25-0.39h-6.14
		c-0.65,0-1.16,0.12-1.54,0.35c-0.37,0.23-0.56,0.58-0.56,1.05c0,0.38,0.07,0.67,0.2,0.87c0.13,0.2,0.41,0.35,0.84,0.46
		c0.42,0.11,1.06,0.18,1.92,0.21c0.86,0.03,2.08,0.05,3.66,0.05c2.36,0,4.2,0.06,5.5,0.19c1.31,0.12,2.33,0.38,3.08,0.76
		c0.75,0.38,1.27,0.95,1.57,1.7c0.3,0.75,0.45,1.79,0.45,3.12c0,1.26-0.13,2.26-0.39,2.98c-0.26,0.72-0.71,1.28-1.35,1.67
		c-0.64,0.39-1.53,0.66-2.66,0.8c-1.13,0.14-2.67,0.21-4.62,0.21h-6.71c-1.32,0-2.41-0.07-3.28-0.23c-0.87-0.15-1.59-0.4-2.15-0.75
		c-0.56-0.35-0.97-0.84-1.24-1.47c-0.27-0.63-0.4-1.44-0.4-2.42V351.68z"/>
</g>
<line class="st11" x1="178.44" y1="349.86" x2="108.54" y2="349.86"/>
<line class="st11" x1="463.34" y1="349.86" x2="393.44" y2="349.86"/>
</svg>
